<?xml version="1.0" encoding="UTF-8" standalone="no"?>
<!-- Created with Inkscape (http://www.inkscape.org/) -->

<svg
   width="86.81292mm"
   height="93.376907mm"
   viewBox="0 0 86.81292 93.376907"
   version="1.1"
   id="svg1"
   xml:space="preserve"
   xmlns:inkscape="http://www.inkscape.org/namespaces/inkscape"
   xmlns:sodipodi="http://sodipodi.sourceforge.net/DTD/sodipodi-0.dtd"
   xmlns="http://www.w3.org/2000/svg"
   xmlns:svg="http://www.w3.org/2000/svg"><sodipodi:namedview
     id="namedview1"
     pagecolor="#505050"
     bordercolor="#eeeeee"
     borderopacity="1"
     inkscape:showpageshadow="0"
     inkscape:pageopacity="0"
     inkscape:pagecheckerboard="0"
     inkscape:deskcolor="#505050"
     inkscape:document-units="mm" /><defs
     id="defs1" /><g
     inkscape:label="Layer 1"
     inkscape:groupmode="layer"
     id="layer1"
     transform="translate(-66.089487,-138.95689)"><path
       id="path25"
       style="fill:#00d492;fill-opacity:1"
       d="m 109.46309,138.95689 -3.86747,3.95687 c -7.472131,7.64382 -11.558009,15.55012 -11.575519,22.40018 -0.008,2.99112 1.516041,7.96573 4.417818,14.42393 2.616291,5.8228 4.536891,12.17774 4.948531,16.37367 0.28879,2.9437 0.28786,2.94608 -1.12241,2.94608 -1.37033,0 -1.42981,-0.11952 -2.03812,-4.09329 -1.540165,-10.06103 -5.991112,-17.4976 -12.47107,-20.83697 -3.928388,-2.02444 -9.216827,-2.03583 -13.304614,-0.0284 -8.941483,4.39094 -11.129228,15.55785 -4.522205,23.08283 2.056892,2.34268 5.224511,4.23854 7.900293,4.7284 1.832172,0.33541 1.969278,0.28402 1.598352,-0.60203 -0.223156,-0.53307 -0.511566,-2.12249 -0.640787,-3.53157 -0.191693,-2.0903 -0.0121,-2.89209 0.9741,-4.35529 1.390302,-2.06276 4.077426,-3.58468 6.331397,-3.58583 3.654364,-0.002 8.32315,3.9472 9.237679,7.81348 0.32196,1.36111 0.26215,1.4087 -1.753898,1.4087 -1.575578,0 -2.22398,0.25615 -2.645834,1.04438 -0.598242,1.11783 -0.217117,3.07038 0.719853,3.68763 0.314289,0.20705 8.440604,0.38016 18.058334,0.38447 14.57174,0.007 17.58868,-0.11502 18.09708,-0.7276 0.33555,-0.40431 0.53669,-1.49964 0.447,-2.43396 -0.15572,-1.62232 -0.27336,-1.71025 -2.61844,-1.95492 l -2.45567,-0.2558 1.43092,-2.7926 c 1.89962,-3.70757 4.5022,-5.74554 7.68739,-6.01978 5.87452,-0.5058 9.27209,4.1394 7.6631,10.47739 -0.3674,1.44729 -0.29421,1.66553 0.56069,1.66553 1.66631,0 7.17878,-3.04367 8.63875,-4.76973 0.76088,-0.89956 1.94725,-2.86252 2.63653,-4.36201 1.0532,-2.29113 1.2207,-3.31345 1.04955,-6.40477 -0.23559,-4.25534 -1.34991,-6.91701 -4.00854,-9.57565 -2.96803,-2.96803 -6.26337,-4.28312 -10.75542,-4.29224 -4.37086,-0.009 -7.31142,1.04947 -10.36733,3.73259 -4.33041,3.80215 -8.20532,12.13361 -8.89403,19.12286 -0.33546,3.40447 -0.37189,3.47421 -1.81332,3.47421 -1.21313,0 -1.47071,-0.21631 -1.47071,-1.23559 0,-3.07837 1.70904,-9.6067 3.884,-14.83372 5.57173,-13.39033 6.22222,-15.95006 5.31854,-20.94187 -1.16776,-6.45054 -5.2459,-13.21374 -11.94605,-19.81171 z m -1.25833,67.22484 -2.32802,0.15296 -2.32802,0.15296 -0.64544,3.58687 c -0.40124,2.228 -1.51927,5.31387 -2.951241,8.14627 -1.726099,3.41415 -2.185048,4.78513 -1.825729,5.45651 0.753239,1.40745 10.11084,8.54733 11.34504,8.65632 0.18775,0.0166 2.0322,-1.10595 4.09898,-2.49442 2.06679,-1.38847 4.75062,-3.54341 5.96398,-4.78834 l 2.20606,-2.26343 -1.58026,-2.54196 c -1.81882,-2.92587 -4.08623,-9.02017 -4.10208,-11.02568 -0.0198,-2.50314 -0.47792,-2.98845 -2.82308,-2.98845 h -2.19057 l -0.33176,4.48345 c -0.18243,2.4659 -0.48079,5.98218 -0.66301,7.81399 -0.30844,3.10072 -0.35897,3.20699 -0.73122,1.53737 -0.21991,-0.98636 -0.56017,-4.51375 -0.75654,-7.83879 z m -10.285672,0.0496 c -1.989478,0 -2.312634,0.16721 -2.855123,1.47691 -1.549399,3.74056 -5.903093,5.64863 -9.169983,4.01888 -1.875899,-0.93581 -2.127519,-0.74073 -2.127519,1.64899 0,2.17984 1.043758,3.8417 3.262333,5.19452 1.898112,1.15741 3.82689,1.24596 6.13606,0.28112 2.372126,-0.99113 5.105146,-4.3999 6.127275,-7.64243 1.407949,-4.46656 1.266819,-4.97799 -1.373043,-4.97799 z m 23.271962,0 c -1.10491,0 -2.11081,0.1731 -2.235,0.38447 -0.43696,0.74365 1.23603,6.0461 2.61431,8.28632 1.47483,2.39717 4.92925,4.65139 7.12773,4.65139 0.66927,0 1.95861,-0.3138 2.86546,-0.69763 0.90685,-0.38383 2.06205,-1.16255 2.56728,-1.73013 1.01175,-1.1366 1.69058,-4.24189 1.20406,-5.50974 -0.28138,-0.73328 -0.46302,-0.73043 -1.94045,0.0336 -1.89132,0.97804 -4.92783,0.75122 -6.85591,-0.51211 -0.69018,-0.45223 -1.72403,-1.74076 -2.29702,-2.86391 -0.94727,-1.85681 -1.2238,-2.04225 -3.05046,-2.04225 z" /></g></svg>
